# xmcd
#
# Track frame offsets: 
#        150
#        12967
#        29175
#        50475
#        71880
#        90405
#        112927
#        130972
#        150680
#        171395
#        182280
#        200635
#        217105
#        234882
#        254055
#        272272
#
# Disc length: 3893 seconds
#
# Revision: 16
# Processed by: cddbd v1.5.2PL0 Copyright (c) Steve Scherf et al.
# Submitted via: ExactAudioCopy v1.1
#
DISCID=e40f3310
DTITLE=Nas - I Am...
DYEAR=1999
DGENRE=Hip-Hop
TTITLE0=Album Intro
TTITLE1=N.Y. State Of Mind Pt. II
TTITLE2=Hate Me Now (Ft. Puff Daddy)
TTITLE3=Small World
TTITLE4=Favor For A Favor (Ft. Scarface)
TTITLE5=We Will Survive
TTITLE6=Ghetto Prisoners
TTITLE7=You Won't See Me Tonight (Ft. Aaliyah)
TTITLE8=I Want To Talk To You
TTITLE9=Dr. Knockboot
TTITLE10=Life Is What You Make It (Ft. DMX)
TTITLE11=Big Things
TTITLE12=Nas Is Like
TTITLE13=K-I-SS-I-N-G
TTITLE14=Money Is My Bitch
TTITLE15=Undying Love
EXTD=YEAR: 1999
EXTT0=
EXTT1=
EXTT2=
EXTT3=
EXTT4=
EXTT5=
EXTT6=
EXTT7=
EXTT8=
EXTT9=
EXTT10=
EXTT11=
EXTT12=
EXTT13=
EXTT14=
EXTT15=
PLAYORDER=
